<?xml version="1.0" encoding="utf-8"?>
<!-- Generator: Adobe Illustrator 16.0.0, SVG Export Plug-In . SVG Version: 6.00 Build 0)  -->
<!DOCTYPE svg PUBLIC "-//W3C//DTD SVG 1.1//EN" "http://www.w3.org/Graphics/SVG/1.1/DTD/svg11.dtd">
<svg version="1.1" xmlns="http://www.w3.org/2000/svg" xmlns:xlink="http://www.w3.org/1999/xlink" x="0px" y="0px" width="1000px"
	 height="882px" viewBox="0 0 1000 882" enable-background="new 0 0 1000 882" xml:space="preserve">
<g id="Layer_2">
</g>
<g id="Layer_1">
	<g>
		<linearGradient id="SVGID_1_" gradientUnits="userSpaceOnUse" x1="180.7607" y1="337.3525" x2="819.2393" y2="337.3525">
			<stop  offset="0" style="stop-color:#B9D532"/>
			<stop  offset="1" style="stop-color:#5BBA47"/>
		</linearGradient>
		<path fill="url(#SVGID_1_)" d="M500,18c-176.313,0-319.239,142.979-319.239,319.354c0,176.371,142.926,319.351,319.239,319.351
			c176.313,0,319.239-142.98,319.239-319.351C819.239,160.979,676.313,18,500,18z M500,576.866
			c-132.237,0-239.429-107.23-239.429-239.512S367.763,97.838,500,97.838c132.236,0,239.428,107.233,239.428,239.516
			S632.236,576.866,500,576.866z"/>
		<g>
			<path fill="#58595B" d="M377.185,860.931v-70.053c0-10.863-2.286-18.763-6.856-23.698c-4.571-4.934-11.66-7.402-21.264-7.402
				c-12.917,0-22.374,3.264-28.369,9.787c-5.996,6.525-8.993,17.108-8.993,31.747v59.619h-9.837v-108.01h8.347l1.888,14.806h0.596
				c7.021-11.261,19.508-16.893,37.461-16.893c24.509,0,36.765,13.15,36.765,39.448v70.648H377.185z"/>
			<path fill="#58595B" d="M551.967,788.096c0,23.649-5.912,42.032-17.736,55.148s-28.567,19.674-50.229,19.674
				c-21.927,0-38.77-6.509-50.527-19.525c-11.759-13.017-17.638-31.514-17.638-55.495c0-23.979,5.913-42.395,17.737-55.247
				c11.825-12.851,28.699-19.276,50.626-19.276c21.595,0,38.288,6.525,50.08,19.574C546.07,746,551.967,764.382,551.967,788.096z
				 M441.076,788.096c0,17.886,3.61,31.449,10.831,40.69c7.219,9.241,17.918,13.861,32.095,13.861
				c14.11,0,24.757-4.57,31.946-13.712c7.188-9.142,10.781-22.755,10.781-40.84c0-17.818-3.562-31.332-10.682-40.54
				c-7.122-9.207-17.737-13.813-31.847-13.813c-14.243,0-24.99,4.605-32.244,13.813
				C444.703,756.764,441.076,770.277,441.076,788.096z"/>
			<path fill="#58595B" d="M666.933,821.482c0,12.918-4.671,23.053-14.011,30.406c-9.34,7.353-22.226,11.029-38.653,11.029
				c-16.429,0-29.876-2.55-40.342-7.651v-22.456c6.623,3.114,13.663,5.564,21.115,7.353c7.452,1.789,14.391,2.684,20.816,2.684
				c9.406,0,16.346-1.789,20.817-5.366s6.707-8.379,6.707-14.408c0-5.431-2.054-10.035-6.16-13.812
				c-4.108-3.775-12.587-8.247-25.438-13.414c-13.25-5.366-22.591-11.492-28.021-18.383c-5.433-6.889-8.147-15.169-8.147-24.841
				c0-12.123,4.305-21.662,12.917-28.617c8.61-6.956,20.171-10.434,34.679-10.434c13.911,0,27.755,3.048,41.534,9.142l-7.552,19.376
				c-12.917-5.431-24.443-8.147-34.579-8.147c-7.685,0-13.514,1.674-17.488,5.018c-3.975,3.346-5.962,7.768-5.962,13.266
				c0,3.775,0.795,7.005,2.385,9.688c1.59,2.684,4.206,5.217,7.851,7.602c3.642,2.385,10.2,5.532,19.674,9.439
				c10.665,4.439,18.482,8.58,23.45,12.421c4.969,3.843,8.61,8.183,10.931,13.017C665.772,809.229,666.933,814.925,666.933,821.482z
				"/>
		</g>
	</g>
</g>
</svg>
